PathFileType	4	(X/Y/Z)	AnatoAlexandra.trc
DataRate	CameraRate	NumFrames	NumMarkers	Units	OrigDataRate	OrigDataStartFrame	OrigNumFrames
300	300	6	44	mm	300	146	1160
Frame#	Time	ASISr			ASISl			PSISl			PSISr			STERr			STERl			STER			XIPH			C6			T8			T10			CLAV_SC			CLAVm			CLAV_ant			CLAV_post			CLAVl			CLAV_AC			SCAP_CP			ACRO_tip			SCAP_AA			SCAPl			SCAPm			SCAP_RS			SCAP_SA			SCAP_IA			DELT			ARMp_up			ARMp_do			ARMl			ARMm			EPICl			EPICm			LARM_elb			LARM_ant			LARMl			LARMm			WRIST			STYLr_up			STYLu			STYLr			MEDH			LATH			LASTC			INDEX			
		X1	Y1	Z1	X2	Y2	Z2	X3	Y3	Z3	X4	Y4	Z4	X5	Y5	Z5	X6	Y6	Z6	X7	Y7	Z7	X8	Y8	Z8	X9	Y9	Z9	X10	Y10	Z10	X11	Y11	Z11	X12	Y12	Z12	X13	Y13	Z13	X14	Y14	Z14	X15	Y15	Z15	X16	Y16	Z16	X17	Y17	Z17	X18	Y18	Z18	X19	Y19	Z19	X20	Y20	Z20	X21	Y21	Z21	X22	Y22	Z22	X23	Y23	Z23	X24	Y24	Z24	X25	Y25	Z25	X26	Y26	Z26	X27	Y27	Z27	X28	Y28	Z28	X29	Y29	Z29	X30	Y30	Z30	X31	Y31	Z31	X32	Y32	Z32	X33	Y33	Z33	X34	Y34	Z34	X35	Y35	Z35	X36	Y36	Z36	X37	Y37	Z37	X38	Y38	Z38	X39	Y39	Z39	X40	Y40	Z40	X41	Y41	Z41	X42	Y42	Z42	X43	Y43	Z43	X44	Y44	Z44
146	4.866667e-01	5.438500e+02	9.848970e+02	-2.936820e+02	5.455270e+02	9.938740e+02	-5.644950e+02	3.572990e+02	1.021140e+03	-4.806510e+02	3.546700e+02	1.019500e+03	-3.886030e+02	5.151490e+02	1.436760e+03	-4.082540e+02	5.153710e+02	1.438570e+03	-4.401400e+02	5.288050e+02	1.419410e+03	-4.226060e+02	6.020250e+02	1.211350e+03	-4.245430e+02	3.768200e+02	1.492490e+03	-4.283260e+02	3.546330e+02	1.398540e+03	-4.342300e+02	3.581020e+02	1.200720e+03	-4.339930e+02	5.061020e+02	1.449420e+03	-4.037430e+02	4.957580e+02	1.455360e+03	-3.721300e+02	4.781240e+02	1.463550e+03	-3.538460e+02	4.641280e+02	1.465030e+03	-3.331000e+02	4.461090e+02	1.475600e+03	-3.231350e+02	4.309570e+02	1.476800e+03	-2.999340e+02	4.609180e+02	1.462450e+03	-2.675090e+02	4.375040e+02	1.463890e+03	-2.488050e+02	4.118420e+02	1.463470e+03	-2.567100e+02	3.833410e+02	1.457370e+03	-2.844560e+02	3.505960e+02	1.437650e+03	-3.111890e+02	3.401910e+02	1.423190e+03	-3.569450e+02	3.570670e+02	1.458080e+03	-3.603220e+02	3.342390e+02	1.302390e+03	-3.432790e+02	4.176800e+02	1.327370e+03	-1.820320e+02	3.700610e+02	1.267190e+03	-2.318020e+02	3.959680e+02	1.191350e+03	-2.137670e+02	3.965680e+02	1.256160e+03	-1.754590e+02	4.660180e+02	1.228270e+03	-2.473780e+02	4.028180e+02	1.173910e+03	-1.364530e+02	4.529740e+02	1.130770e+03	-2.061500e+02	4.129520e+02	1.134660e+03	-1.820740e+02	4.190250e+02	1.089770e+03	-6.594890e+01	4.119220e+02	1.072450e+03	-1.288110e+02	4.876610e+02	1.106490e+03	-9.411910e+01	4.232240e+02	1.013010e+03	-3.820440e+01	4.388760e+02	1.030420e+03	-1.910540e+01	4.331140e+02	9.543240e+02	-2.718610e+01	4.523770e+02	9.889190e+02	1.638520e+01	4.304680e+02	9.212020e+02	7.520960e+00	4.308260e+02	9.371930e+02	2.794080e+01	4.337650e+02	8.875690e+02	1.977740e-01	4.303030e+02	9.118940e+02	6.442880e+01
147	4.900000e-01	5.438340e+02	9.848910e+02	-2.937040e+02	5.455580e+02	9.938790e+02	-5.645060e+02	3.573090e+02	1.021130e+03	-4.806560e+02	3.546720e+02	1.019500e+03	-3.885770e+02	5.152010e+02	1.436760e+03	-4.082590e+02	5.154690e+02	1.438600e+03	-4.401290e+02	5.288550e+02	1.419410e+03	-4.226110e+02	6.020960e+02	1.211350e+03	-4.245530e+02	3.768710e+02	1.492540e+03	-4.283270e+02	3.546540e+02	1.398530e+03	-4.342090e+02	3.581800e+02	1.200730e+03	-4.340560e+02	5.060810e+02	1.449370e+03	-4.037660e+02	4.958180e+02	1.455360e+03	-3.721440e+02	4.781870e+02	1.463560e+03	-3.538570e+02	4.642520e+02	1.465050e+03	-3.330980e+02	4.461660e+02	1.475610e+03	-3.231350e+02	4.310430e+02	1.476840e+03	-2.999180e+02	4.609760e+02	1.462470e+03	-2.675160e+02	4.375790e+02	1.463920e+03	-2.488080e+02	4.119010e+02	1.463490e+03	-2.567090e+02	3.833880e+02	1.457400e+03	-2.844500e+02	3.506200e+02	1.437670e+03	-3.111680e+02	3.402020e+02	1.423180e+03	-3.569140e+02	3.571180e+02	1.458100e+03	-3.603040e+02	3.343090e+02	1.302420e+03	-3.432710e+02	4.177190e+02	1.327400e+03	-1.820240e+02	3.700950e+02	1.267220e+03	-2.317740e+02	3.960010e+02	1.191360e+03	-2.137710e+02	3.966040e+02	1.256180e+03	-1.754470e+02	4.660650e+02	1.228300e+03	-2.473810e+02	4.028460e+02	1.173920e+03	-1.364350e+02	4.530150e+02	1.130800e+03	-2.061690e+02	4.129820e+02	1.134660e+03	-1.821320e+02	4.190680e+02	1.089770e+03	-6.597160e+01	4.119110e+02	1.072460e+03	-1.288010e+02	4.876940e+02	1.106480e+03	-9.414070e+01	4.232420e+02	1.013020e+03	-3.820020e+01	4.389120e+02	1.030420e+03	-1.913240e+01	4.331190e+02	9.543320e+02	-2.719220e+01	4.524060e+02	9.888820e+02	1.633900e+01	4.305040e+02	9.211890e+02	7.489260e+00	4.306990e+02	9.371410e+02	2.802960e+01	4.336050e+02	8.874870e+02	3.206980e-01	4.303380e+02	9.118780e+02	6.441910e+01
148	4.933333e-01	5.438600e+02	9.848910e+02	-2.937080e+02	5.455540e+02	9.938890e+02	-5.645070e+02	3.573250e+02	1.021150e+03	-4.806460e+02	3.546850e+02	1.019510e+03	-3.885820e+02	5.152520e+02	1.436760e+03	-4.082620e+02	5.155000e+02	1.438600e+03	-4.401350e+02	5.289140e+02	1.419410e+03	-4.226130e+02	6.021560e+02	1.211360e+03	-4.245610e+02	3.769080e+02	1.492530e+03	-4.283140e+02	3.547100e+02	1.398550e+03	-4.342080e+02	3.581640e+02	1.200750e+03	-4.339900e+02	5.061170e+02	1.449360e+03	-4.037760e+02	4.959450e+02	1.455430e+03	-3.720980e+02	4.782210e+02	1.463530e+03	-3.538810e+02	4.643020e+02	1.465060e+03	-3.331040e+02	4.462080e+02	1.475620e+03	-3.231350e+02	4.311000e+02	1.476810e+03	-2.999280e+02	4.610360e+02	1.462480e+03	-2.675240e+02	4.376390e+02	1.463930e+03	-2.487960e+02	4.119760e+02	1.463510e+03	-2.567000e+02	3.834460e+02	1.457420e+03	-2.844520e+02	3.506610e+02	1.437710e+03	-3.111400e+02	3.402300e+02	1.423220e+03	-3.568830e+02	3.571820e+02	1.458150e+03	-3.603080e+02	3.343350e+02	1.302440e+03	-3.432580e+02	4.177760e+02	1.327410e+03	-1.820250e+02	3.701430e+02	1.267250e+03	-2.317780e+02	3.960530e+02	1.191380e+03	-2.137750e+02	3.966590e+02	1.256210e+03	-1.754420e+02	4.660810e+02	1.228320e+03	-2.473940e+02	4.028800e+02	1.173940e+03	-1.364390e+02	4.530130e+02	1.130800e+03	-2.061900e+02	4.130160e+02	1.134680e+03	-1.821550e+02	4.191050e+02	1.089790e+03	-6.597790e+01	4.119230e+02	1.072470e+03	-1.288150e+02	4.877120e+02	1.106480e+03	-9.415760e+01	4.232730e+02	1.013030e+03	-3.824570e+01	4.389240e+02	1.030420e+03	-1.916800e+01	4.331150e+02	9.543260e+02	-2.722890e+01	4.524300e+02	9.888730e+02	1.629780e+01	4.305050e+02	9.211960e+02	7.473580e+00	4.308230e+02	9.371400e+02	2.792830e+01	4.336050e+02	8.875010e+02	2.718260e-01	4.303410e+02	9.118630e+02	6.439110e+01
149	4.966667e-01	5.438910e+02	9.848850e+02	-2.937080e+02	5.455540e+02	9.938780e+02	-5.645140e+02	3.573260e+02	1.021130e+03	-4.806510e+02	3.546920e+02	1.019510e+03	-3.885900e+02	5.153020e+02	1.436770e+03	-4.082680e+02	5.155530e+02	1.438600e+03	-4.401330e+02	5.289550e+02	1.419410e+03	-4.226090e+02	6.022310e+02	1.211370e+03	-4.245860e+02	3.769800e+02	1.492550e+03	-4.283390e+02	3.547430e+02	1.398560e+03	-4.341760e+02	3.581700e+02	1.200750e+03	-4.339850e+02	5.061610e+02	1.449370e+03	-4.037700e+02	4.960090e+02	1.455440e+03	-3.720950e+02	4.782830e+02	1.463560e+03	-3.538820e+02	4.643530e+02	1.465070e+03	-3.330960e+02	4.462630e+02	1.475630e+03	-3.231410e+02	4.312110e+02	1.476850e+03	-2.999040e+02	4.611010e+02	1.462490e+03	-2.675250e+02	4.377150e+02	1.463950e+03	-2.487890e+02	4.120360e+02	1.463530e+03	-2.566950e+02	3.834950e+02	1.457450e+03	-2.844300e+02	3.507260e+02	1.437750e+03	-3.111030e+02	3.402810e+02	1.423240e+03	-3.568490e+02	3.572090e+02	1.458140e+03	-3.602880e+02	3.343640e+02	1.302470e+03	-3.432260e+02	4.178390e+02	1.327440e+03	-1.820230e+02	3.701640e+02	1.267280e+03	-2.317520e+02	3.960760e+02	1.191410e+03	-2.137710e+02	3.967130e+02	1.256230e+03	-1.754380e+02	4.661040e+02	1.228320e+03	-2.474140e+02	4.029210e+02	1.173950e+03	-1.364460e+02	4.530370e+02	1.130810e+03	-2.061990e+02	4.130300e+02	1.134700e+03	-1.821490e+02	4.191390e+02	1.089810e+03	-6.599800e+01	4.119550e+02	1.072490e+03	-1.288220e+02	4.877420e+02	1.106480e+03	-9.418520e+01	4.232760e+02	1.013040e+03	-3.826900e+01	4.389440e+02	1.030410e+03	-1.917990e+01	4.331310e+02	9.543300e+02	-2.726350e+01	4.524440e+02	9.888590e+02	1.626840e+01	4.304870e+02	9.211960e+02	7.429530e+00	4.307580e+02	9.371780e+02	2.791900e+01	4.337480e+02	8.875790e+02	8.358240e-02	4.303380e+02	9.118470e+02	6.436010e+01
150	5.000000e-01	5.438870e+02	9.848930e+02	-2.937200e+02	5.455520e+02	9.938710e+02	-5.645140e+02	3.573540e+02	1.021130e+03	-4.806620e+02	3.547070e+02	1.019510e+03	-3.885740e+02	5.153640e+02	1.436770e+03	-4.082680e+02	5.155970e+02	1.438600e+03	-4.401510e+02	5.290030e+02	1.419400e+03	-4.226270e+02	6.022850e+02	1.211380e+03	-4.245980e+02	3.769960e+02	1.492550e+03	-4.283200e+02	3.548050e+02	1.398550e+03	-4.341940e+02	3.582060e+02	1.200760e+03	-4.339750e+02	5.062220e+02	1.449380e+03	-4.037760e+02	4.960660e+02	1.455450e+03	-3.721000e+02	4.783350e+02	1.463550e+03	-3.538740e+02	4.644130e+02	1.465070e+03	-3.331170e+02	4.463020e+02	1.475630e+03	-3.231490e+02	4.312610e+02	1.476880e+03	-2.998870e+02	4.611920e+02	1.462510e+03	-2.675350e+02	4.377890e+02	1.463980e+03	-2.488000e+02	4.121260e+02	1.463550e+03	-2.567040e+02	3.835600e+02	1.457470e+03	-2.844320e+02	3.507480e+02	1.437760e+03	-3.111170e+02	3.403270e+02	1.423260e+03	-3.568490e+02	3.572850e+02	1.458210e+03	-3.602930e+02	3.343840e+02	1.302500e+03	-3.432320e+02	4.178930e+02	1.327450e+03	-1.820170e+02	3.702030e+02	1.267310e+03	-2.317480e+02	3.960660e+02	1.191440e+03	-2.137290e+02	3.967620e+02	1.256240e+03	-1.754210e+02	4.661080e+02	1.228340e+03	-2.474240e+02	4.029610e+02	1.173970e+03	-1.364450e+02	4.530580e+02	1.130830e+03	-2.062180e+02	4.130760e+02	1.134710e+03	-1.821510e+02	4.191590e+02	1.089810e+03	-6.601350e+01	4.119540e+02	1.072500e+03	-1.288220e+02	4.877790e+02	1.106480e+03	-9.421410e+01	4.232140e+02	1.013020e+03	-3.820160e+01	4.389700e+02	1.030410e+03	-1.920000e+01	4.331440e+02	9.543300e+02	-2.729620e+01	4.524730e+02	9.888580e+02	1.624510e+01	4.304990e+02	9.212100e+02	7.404170e+00	4.307830e+02	9.371920e+02	2.786900e+01	4.337230e+02	8.876110e+02	6.154180e-02	4.303490e+02	9.118460e+02	6.434420e+01
151	5.033333e-01	5.439180e+02	9.848870e+02	-2.937320e+02	5.455700e+02	9.938880e+02	-5.645400e+02	3.573500e+02	1.021130e+03	-4.806550e+02	3.547290e+02	1.019500e+03	-3.885700e+02	5.154170e+02	1.436770e+03	-4.082670e+02	5.156490e+02	1.438610e+03	-4.401640e+02	5.290460e+02	1.419400e+03	-4.226250e+02	6.023450e+02	1.211390e+03	-4.245870e+02	3.770530e+02	1.492560e+03	-4.282990e+02	3.548440e+02	1.398580e+03	-4.341820e+02	3.582170e+02	1.200780e+03	-4.339430e+02	5.062640e+02	1.449380e+03	-4.037760e+02	4.961260e+02	1.455440e+03	-3.720940e+02	4.784010e+02	1.463570e+03	-3.538610e+02	4.644760e+02	1.465100e+03	-3.331060e+02	4.463550e+02	1.475640e+03	-3.231520e+02	4.313320e+02	1.476900e+03	-2.998930e+02	4.612600e+02	1.462530e+03	-2.675350e+02	4.378940e+02	1.464060e+03	-2.488030e+02	4.121890e+02	1.463560e+03	-2.566810e+02	3.836070e+02	1.457490e+03	-2.844280e+02	3.508340e+02	1.437780e+03	-3.111180e+02	3.403070e+02	1.423310e+03	-3.567990e+02	3.573430e+02	1.458240e+03	-3.602950e+02	3.344160e+02	1.302510e+03	-3.432140e+02	4.179550e+02	1.327460e+03	-1.820070e+02	3.702210e+02	1.267340e+03	-2.317200e+02	3.961160e+02	1.191440e+03	-2.137620e+02	3.967850e+02	1.256280e+03	-1.754130e+02	4.661630e+02	1.228370e+03	-2.474220e+02	4.029930e+02	1.173990e+03	-1.364440e+02	4.531150e+02	1.130860e+03	-2.062290e+02	4.131140e+02	1.134740e+03	-1.821750e+02	4.191820e+02	1.089810e+03	-6.602480e+01	4.119600e+02	1.072520e+03	-1.288500e+02	4.878100e+02	1.106480e+03	-9.421840e+01	4.231560e+02	1.013010e+03	-3.813490e+01	439	1.030420e+03	-1.922220e+01	4.331240e+02	9.543330e+02	-2.731510e+01	4.524750e+02	9.888450e+02	1.621930e+01	4.304960e+02	9.212050e+02	7.363350e+00	4.307300e+02	9.371360e+02	2.789410e+01	4.335530e+02	8.875200e+02	1.569580e-01	4.303550e+02	9.118410e+02	6.430220e+01
